<svg width="663" height="54" viewBox="0 0 663 54" fill="none" xmlns="http://www.w3.org/2000/svg">
<path d="M0 27C0 12.0883 12.0883 0 27 0H636C650.912 0 663 12.0883 663 27C663 41.9117 650.912 54 636 54H27C12.0883 54 0 41.9117 0 27Z" fill="white"/>
<g clip-path="url(#clip0_1_7)">
<path d="M48.2031 25.9209V27.0708H42.4316V25.9209H48.2031ZM42.6514 21.3359V32H41.2378V21.3359H42.6514ZM49.4336 21.3359V32H48.0273V21.3359H49.4336ZM51.3818 28.1255V27.957C51.3818 27.3857 51.4648 26.856 51.6309 26.3677C51.7969 25.8745 52.0361 25.4473 52.3486 25.0859C52.6611 24.7197 53.0396 24.4365 53.4839 24.2363C53.9282 24.0312 54.4263 23.9287 54.978 23.9287C55.5347 23.9287 56.0352 24.0312 56.4795 24.2363C56.9287 24.4365 57.3096 24.7197 57.6221 25.0859C57.9395 25.4473 58.1812 25.8745 58.3472 26.3677C58.5132 26.856 58.5962 27.3857 58.5962 27.957V28.1255C58.5962 28.6968 58.5132 29.2266 58.3472 29.7148C58.1812 30.2031 57.9395 30.6304 57.6221 30.9966C57.3096 31.3579 56.9312 31.6411 56.4868 31.8462C56.0474 32.0464 55.5493 32.1465 54.9927 32.1465C54.436 32.1465 53.9355 32.0464 53.4912 31.8462C53.0469 31.6411 52.666 31.3579 52.3486 30.9966C52.0361 30.6304 51.7969 30.2031 51.6309 29.7148C51.4648 29.2266 51.3818 28.6968 51.3818 28.1255ZM52.7368 27.957V28.1255C52.7368 28.521 52.7832 28.8945 52.876 29.2461C52.9688 29.5928 53.1079 29.9004 53.2935 30.1689C53.4839 30.4375 53.7207 30.6499 54.0039 30.8062C54.2871 30.9575 54.6167 31.0332 54.9927 31.0332C55.3638 31.0332 55.6885 30.9575 55.9668 30.8062C56.25 30.6499 56.4844 30.4375 56.6699 30.1689C56.8555 29.9004 56.9946 29.5928 57.0874 29.2461C57.1851 28.8945 57.2339 28.521 57.2339 28.1255V27.957C57.2339 27.5664 57.1851 27.1978 57.0874 26.8511C56.9946 26.4995 56.853 26.1895 56.6626 25.9209C56.4771 25.6475 56.2427 25.4326 55.9595 25.2764C55.6812 25.1201 55.354 25.042 54.978 25.042C54.6069 25.042 54.2798 25.1201 53.9966 25.2764C53.7183 25.4326 53.4839 25.6475 53.2935 25.9209C53.1079 26.1895 52.9688 26.4995 52.876 26.8511C52.7832 27.1978 52.7368 27.5664 52.7368 27.957ZM61.6431 25.6499V32H60.2808V24.0752H61.5698L61.6431 25.6499ZM61.3647 27.7373L60.7349 27.7153C60.7397 27.1733 60.8105 26.6729 60.9473 26.2139C61.084 25.75 61.2866 25.3472 61.5552 25.0054C61.8237 24.6636 62.1582 24.3999 62.5586 24.2144C62.959 24.0239 63.4229 23.9287 63.9502 23.9287C64.3213 23.9287 64.6631 23.9824 64.9756 24.0898C65.2881 24.1924 65.5591 24.356 65.7886 24.5806C66.0181 24.8052 66.1963 25.0933 66.3232 25.4448C66.4502 25.7964 66.5137 26.2212 66.5137 26.7192V32H65.1587V26.7852C65.1587 26.3701 65.0879 26.0381 64.9463 25.7891C64.8096 25.54 64.6143 25.3594 64.3604 25.2471C64.1064 25.1299 63.8086 25.0713 63.4668 25.0713C63.0664 25.0713 62.7319 25.1421 62.4634 25.2837C62.1948 25.4253 61.98 25.6206 61.8188 25.8696C61.6577 26.1187 61.5405 26.4043 61.4673 26.7266C61.3989 27.0439 61.3647 27.3809 61.3647 27.7373ZM66.499 26.9902L65.5908 27.2686C65.5957 26.834 65.6665 26.4165 65.8032 26.0161C65.9448 25.6157 66.1475 25.2593 66.4111 24.9468C66.6797 24.6343 67.0093 24.3877 67.3999 24.207C67.7905 24.0215 68.2373 23.9287 68.7402 23.9287C69.165 23.9287 69.541 23.9849 69.8682 24.0972C70.2002 24.2095 70.4785 24.3828 70.7031 24.6172C70.9326 24.8467 71.106 25.1421 71.2231 25.5034C71.3403 25.8647 71.3989 26.2944 71.3989 26.7925V32H70.0366V26.7778C70.0366 26.3335 69.9658 25.9893 69.8242 25.7451C69.6875 25.4961 69.4922 25.3228 69.2383 25.2251C68.9893 25.1226 68.6914 25.0713 68.3447 25.0713C68.0469 25.0713 67.7832 25.1226 67.5537 25.2251C67.3242 25.3276 67.1313 25.4692 66.9751 25.6499C66.8188 25.8257 66.6992 26.0283 66.6162 26.2578C66.5381 26.4873 66.499 26.7314 66.499 26.9902ZM76.7383 32.1465C76.1865 32.1465 75.686 32.0537 75.2368 31.8682C74.7925 31.6777 74.4092 31.4116 74.0869 31.0698C73.7695 30.728 73.5254 30.3228 73.3545 29.854C73.1836 29.3853 73.0981 28.8726 73.0981 28.3159V28.0083C73.0981 27.3638 73.1934 26.79 73.3838 26.2871C73.5742 25.7793 73.833 25.3496 74.1602 24.998C74.4873 24.6465 74.8584 24.3804 75.2734 24.1997C75.6885 24.019 76.1182 23.9287 76.5625 23.9287C77.1289 23.9287 77.6172 24.0264 78.0273 24.2217C78.4424 24.417 78.7817 24.6904 79.0454 25.042C79.3091 25.3887 79.5044 25.7988 79.6313 26.2725C79.7583 26.7412 79.8218 27.2539 79.8218 27.8105V28.4185H73.9038V27.3125H78.4668V27.21C78.4473 26.8584 78.374 26.5166 78.2471 26.1846C78.125 25.8525 77.9297 25.5791 77.6611 25.3643C77.3926 25.1494 77.0264 25.042 76.5625 25.042C76.2549 25.042 75.9717 25.1079 75.7129 25.2397C75.4541 25.3667 75.2319 25.5571 75.0464 25.811C74.8608 26.0649 74.7168 26.375 74.6143 26.7412C74.5117 27.1074 74.4604 27.5298 74.4604 28.0083V28.3159C74.4604 28.6919 74.5117 29.0459 74.6143 29.3779C74.7217 29.7051 74.8755 29.9932 75.0757 30.2422C75.2808 30.4912 75.5273 30.6865 75.8154 30.8281C76.1084 30.9697 76.4404 31.0405 76.8115 31.0405C77.29 31.0405 77.6953 30.9429 78.0273 30.7476C78.3594 30.5522 78.6499 30.291 78.8989 29.9639L79.7192 30.6157C79.5483 30.8745 79.3311 31.1211 79.0674 31.3555C78.8037 31.5898 78.479 31.7803 78.0933 31.9268C77.7124 32.0732 77.2607 32.1465 76.7383 32.1465Z" fill="#49464F"/>
</g>
<g clip-path="url(#clip1_1_7)">
<path d="M140.602 29.0312H135.836L134.766 32H133.219L137.562 20.625H138.875L143.227 32H141.688L140.602 29.0312ZM136.289 27.7969H140.156L138.219 22.4766L136.289 27.7969ZM151.688 27.8672C151.688 29.1589 151.391 30.1979 150.797 30.9844C150.203 31.7656 149.406 32.1562 148.406 32.1562C147.339 32.1562 146.513 31.7786 145.93 31.0234L145.859 32H144.531V20H145.977V24.4766C146.56 23.7526 147.365 23.3906 148.391 23.3906C149.417 23.3906 150.221 23.7786 150.805 24.5547C151.393 25.3307 151.688 26.3932 151.688 27.7422V27.8672ZM150.242 27.7031C150.242 26.7188 150.052 25.9583 149.672 25.4219C149.292 24.8854 148.745 24.6172 148.031 24.6172C147.078 24.6172 146.393 25.0599 145.977 25.9453V29.6016C146.419 30.487 147.109 30.9297 148.047 30.9297C148.74 30.9297 149.279 30.6615 149.664 30.125C150.049 29.5885 150.242 28.7812 150.242 27.7031ZM153.133 27.6953C153.133 26.8672 153.294 26.1224 153.617 25.4609C153.945 24.7995 154.398 24.2891 154.977 23.9297C155.56 23.5703 156.224 23.3906 156.969 23.3906C158.12 23.3906 159.049 23.7891 159.758 24.5859C160.471 25.3828 160.828 26.4427 160.828 27.7656V27.8672C160.828 28.6901 160.669 29.4297 160.352 30.0859C160.039 30.737 159.589 31.2448 159 31.6094C158.417 31.974 157.745 32.1562 156.984 32.1562C155.839 32.1562 154.909 31.7578 154.195 30.9609C153.487 30.1641 153.133 29.1094 153.133 27.7969V27.6953ZM154.586 27.8672C154.586 28.8047 154.802 29.5573 155.234 30.125C155.672 30.6927 156.255 30.9766 156.984 30.9766C157.719 30.9766 158.302 30.6901 158.734 30.1172C159.167 29.5391 159.383 28.7318 159.383 27.6953C159.383 26.7682 159.161 26.0182 158.719 25.4453C158.281 24.8672 157.698 24.5781 156.969 24.5781C156.255 24.5781 155.68 24.862 155.242 25.4297C154.805 25.9974 154.586 26.8099 154.586 27.8672ZM167.859 31.1641C167.297 31.8255 166.471 32.1562 165.383 32.1562C164.482 32.1562 163.794 31.8958 163.32 31.375C162.852 30.849 162.615 30.0729 162.609 29.0469V23.5469H164.055V29.0078C164.055 30.2891 164.576 30.9297 165.617 30.9297C166.721 30.9297 167.456 30.5182 167.82 29.6953V23.5469H169.266V32H167.891L167.859 31.1641ZM173.43 21.5V23.5469H175.008V24.6641H173.43V29.9062C173.43 30.2448 173.5 30.5 173.641 30.6719C173.781 30.8385 174.021 30.9219 174.359 30.9219C174.526 30.9219 174.755 30.8906 175.047 30.8281V32C174.667 32.1042 174.297 32.1562 173.938 32.1562C173.292 32.1562 172.805 31.9609 172.477 31.5703C172.148 31.1797 171.984 30.625 171.984 29.9062V24.6641H170.445V23.5469H171.984V21.5H173.43Z" fill="#8D867C"/>
</g>
<g clip-path="url(#clip2_1_7)">
<path d="M228.32 32V20.625H232.039C233.273 20.625 234.201 20.8802 234.82 21.3906C235.445 21.901 235.758 22.6562 235.758 23.6562C235.758 24.1875 235.607 24.6589 235.305 25.0703C235.003 25.4766 234.591 25.7917 234.07 26.0156C234.685 26.1875 235.169 26.5156 235.523 27C235.883 27.4792 236.062 28.0521 236.062 28.7188C236.062 29.7396 235.732 30.5417 235.07 31.125C234.409 31.7083 233.474 32 232.266 32H228.32ZM229.82 26.6797V30.7734H232.297C232.995 30.7734 233.544 30.5938 233.945 30.2344C234.352 29.8698 234.555 29.3698 234.555 28.7344C234.555 27.3646 233.81 26.6797 232.32 26.6797H229.82ZM229.82 25.4766H232.086C232.742 25.4766 233.266 25.3125 233.656 24.9844C234.052 24.6562 234.25 24.2109 234.25 23.6484C234.25 23.0234 234.068 22.5703 233.703 22.2891C233.339 22.0026 232.784 21.8594 232.039 21.8594H229.82V25.4766ZM239.633 32H238.188V20H239.633V32ZM241.57 27.6953C241.57 26.8672 241.732 26.1224 242.055 25.4609C242.383 24.7995 242.836 24.2891 243.414 23.9297C243.997 23.5703 244.661 23.3906 245.406 23.3906C246.557 23.3906 247.487 23.7891 248.195 24.5859C248.909 25.3828 249.266 26.4427 249.266 27.7656V27.8672C249.266 28.6901 249.107 29.4297 248.789 30.0859C248.477 30.737 248.026 31.2448 247.438 31.6094C246.854 31.974 246.182 32.1562 245.422 32.1562C244.276 32.1562 243.346 31.7578 242.633 30.9609C241.924 30.1641 241.57 29.1094 241.57 27.7969V27.6953ZM243.023 27.8672C243.023 28.8047 243.24 29.5573 243.672 30.125C244.109 30.6927 244.693 30.9766 245.422 30.9766C246.156 30.9766 246.74 30.6901 247.172 30.1172C247.604 29.5391 247.82 28.7318 247.82 27.6953C247.82 26.7682 247.599 26.0182 247.156 25.4453C246.719 24.8672 246.135 24.5781 245.406 24.5781C244.693 24.5781 244.117 24.862 243.68 25.4297C243.242 25.9974 243.023 26.8099 243.023 27.8672ZM250.734 27.7031C250.734 26.3854 251.039 25.3385 251.648 24.5625C252.258 23.7812 253.065 23.3906 254.07 23.3906C255.102 23.3906 255.906 23.7552 256.484 24.4844L256.555 23.5469H257.875V31.7969C257.875 32.8906 257.549 33.7526 256.898 34.3828C256.253 35.013 255.383 35.3281 254.289 35.3281C253.68 35.3281 253.083 35.1979 252.5 34.9375C251.917 34.6771 251.471 34.3203 251.164 33.8672L251.914 33C252.534 33.7656 253.292 34.1484 254.188 34.1484C254.891 34.1484 255.438 33.9505 255.828 33.5547C256.224 33.1589 256.422 32.6016 256.422 31.8828V31.1562C255.844 31.8229 255.055 32.1562 254.055 32.1562C253.065 32.1562 252.263 31.7578 251.648 30.9609C251.039 30.1641 250.734 29.0781 250.734 27.7031ZM252.188 27.8672C252.188 28.8203 252.383 29.5703 252.773 30.1172C253.164 30.6589 253.711 30.9297 254.414 30.9297C255.326 30.9297 255.995 30.5156 256.422 29.6875V25.8281C255.979 25.0208 255.315 24.6172 254.43 24.6172C253.727 24.6172 253.177 24.8906 252.781 25.4375C252.385 25.9844 252.188 26.7943 252.188 27.8672Z" fill="#8D867C"/>
</g>
<g clip-path="url(#clip3_1_7)">
<path d="M314.325 21.0469H315.645V28.0947C315.645 29.0472 315.357 29.7923 314.783 30.3301C314.214 30.8678 313.452 31.1367 312.5 31.1367C311.511 31.1367 310.741 30.8838 310.189 30.3779C309.638 29.8721 309.362 29.1634 309.362 28.252H310.675C310.675 28.8216 310.83 29.266 311.14 29.585C311.454 29.904 311.908 30.0635 312.5 30.0635C313.042 30.0635 313.48 29.8926 313.812 29.5508C314.15 29.209 314.321 28.7305 314.325 28.1152V21.0469ZM317.347 27.2334C317.347 26.5088 317.488 25.8571 317.771 25.2783C318.058 24.6995 318.454 24.2529 318.96 23.9385C319.47 23.624 320.051 23.4668 320.703 23.4668C321.71 23.4668 322.524 23.8154 323.144 24.5127C323.768 25.21 324.08 26.1374 324.08 27.2949V27.3838C324.08 28.1038 323.941 28.751 323.663 29.3252C323.39 29.8949 322.995 30.3392 322.48 30.6582C321.97 30.9772 321.382 31.1367 320.717 31.1367C319.714 31.1367 318.901 30.7881 318.276 30.0908C317.657 29.3936 317.347 28.4707 317.347 27.3223V27.2334ZM318.618 27.3838C318.618 28.2041 318.807 28.8626 319.186 29.3594C319.568 29.8561 320.079 30.1045 320.717 30.1045C321.359 30.1045 321.87 29.8538 322.248 29.3525C322.626 28.8467 322.815 28.1403 322.815 27.2334C322.815 26.4222 322.622 25.766 322.234 25.2646C321.852 24.7588 321.341 24.5059 320.703 24.5059C320.079 24.5059 319.575 24.7542 319.192 25.251C318.81 25.7477 318.618 26.4587 318.618 27.3838ZM331.928 27.3838C331.928 28.514 331.668 29.4232 331.148 30.1113C330.629 30.7949 329.932 31.1367 329.057 31.1367C328.122 31.1367 327.4 30.8063 326.89 30.1455L326.828 31H325.666V20.5H326.931V24.417C327.441 23.7835 328.145 23.4668 329.043 23.4668C329.941 23.4668 330.645 23.8063 331.155 24.4854C331.67 25.1644 331.928 26.0941 331.928 27.2744V27.3838ZM330.663 27.2402C330.663 26.3789 330.497 25.7135 330.164 25.2441C329.831 24.7747 329.353 24.54 328.729 24.54C327.895 24.54 327.295 24.9274 326.931 25.7021V28.9014C327.318 29.6761 327.922 30.0635 328.742 30.0635C329.348 30.0635 329.82 29.8288 330.157 29.3594C330.494 28.89 330.663 28.1836 330.663 27.2402ZM337.834 29.0381C337.834 28.6963 337.704 28.432 337.444 28.2451C337.189 28.0537 336.74 27.8896 336.098 27.7529C335.46 27.6162 334.951 27.4521 334.573 27.2607C334.2 27.0693 333.922 26.8415 333.739 26.5771C333.562 26.3128 333.473 25.9984 333.473 25.6338C333.473 25.0277 333.728 24.515 334.238 24.0957C334.753 23.6764 335.41 23.4668 336.207 23.4668C337.046 23.4668 337.725 23.6833 338.244 24.1162C338.768 24.5492 339.03 25.1029 339.03 25.7773H337.759C337.759 25.431 337.611 25.1325 337.314 24.8818C337.023 24.6312 336.654 24.5059 336.207 24.5059C335.747 24.5059 335.387 24.6061 335.127 24.8066C334.867 25.0072 334.737 25.2692 334.737 25.5928C334.737 25.8981 334.858 26.1283 335.1 26.2832C335.341 26.4382 335.776 26.5863 336.405 26.7275C337.039 26.8688 337.551 27.0374 337.943 27.2334C338.335 27.4294 338.625 27.6663 338.812 27.9443C339.003 28.2178 339.099 28.5527 339.099 28.9492C339.099 29.61 338.834 30.141 338.306 30.542C337.777 30.9385 337.091 31.1367 336.248 31.1367C335.656 31.1367 335.132 31.0319 334.676 30.8223C334.22 30.6126 333.862 30.321 333.603 29.9473C333.347 29.569 333.22 29.1611 333.22 28.7236H334.484C334.507 29.1475 334.676 29.4847 334.99 29.7354C335.309 29.9814 335.729 30.1045 336.248 30.1045C336.727 30.1045 337.109 30.0088 337.396 29.8174C337.688 29.6214 337.834 29.3617 337.834 29.0381Z" fill="#8D867C"/>
</g>
<g clip-path="url(#clip4_1_7)">
<path d="M417.32 32V20.625H420.531C421.521 20.625 422.396 20.8438 423.156 21.2812C423.917 21.7188 424.503 22.3411 424.914 23.1484C425.331 23.9557 425.542 24.8828 425.547 25.9297V26.6562C425.547 27.7292 425.339 28.6693 424.922 29.4766C424.51 30.2839 423.919 30.9036 423.148 31.3359C422.383 31.7682 421.49 31.9896 420.469 32H417.32ZM418.82 21.8594V30.7734H420.398C421.555 30.7734 422.453 30.4141 423.094 29.6953C423.74 28.9766 424.062 27.9531 424.062 26.625V25.9609C424.062 24.6693 423.758 23.6667 423.148 22.9531C422.544 22.2344 421.685 21.8698 420.57 21.8594H418.82ZM431.102 32.1562C429.956 32.1562 429.023 31.7812 428.305 31.0312C427.586 30.276 427.227 29.2682 427.227 28.0078V27.7422C427.227 26.9036 427.385 26.1562 427.703 25.5C428.026 24.8385 428.474 24.3229 429.047 23.9531C429.625 23.5781 430.25 23.3906 430.922 23.3906C432.021 23.3906 432.875 23.7526 433.484 24.4766C434.094 25.2005 434.398 26.237 434.398 27.5859V28.1875H428.672C428.693 29.0208 428.935 29.6953 429.398 30.2109C429.867 30.7214 430.461 30.9766 431.18 30.9766C431.69 30.9766 432.122 30.8724 432.477 30.6641C432.831 30.4557 433.141 30.1797 433.406 29.8359L434.289 30.5234C433.581 31.612 432.518 32.1562 431.102 32.1562ZM430.922 24.5781C430.339 24.5781 429.849 24.7917 429.453 25.2188C429.057 25.6406 428.812 26.2344 428.719 27H432.953V26.8906C432.911 26.1562 432.714 25.5885 432.359 25.1875C432.005 24.7812 431.526 24.5781 430.922 24.5781Z" fill="#8D867C"/>
<path d="M410.383 32.9766H409.141L413.891 20.625H415.125L410.383 32.9766Z" fill="#8D867C"/>
<path d="M398.75 26.7422H393.82V30.7734H399.547V32H392.32V20.625H399.469V21.8594H393.82V25.5156H398.75V26.7422ZM402.555 23.5469L402.602 24.6094C403.247 23.7969 404.091 23.3906 405.133 23.3906C406.919 23.3906 407.82 24.3984 407.836 26.4141V32H406.391V26.4062C406.385 25.7969 406.245 25.3464 405.969 25.0547C405.698 24.763 405.273 24.6172 404.695 24.6172C404.227 24.6172 403.815 24.7422 403.461 24.9922C403.107 25.2422 402.831 25.5703 402.633 25.9766V32H401.188V23.5469H402.555Z" fill="#49464F"/>
</g>
<defs>
<clipPath id="clip0_1_7">
<rect width="43" height="19" fill="white" transform="translate(40 17)"/>
</clipPath>
<clipPath id="clip1_1_7">
<rect width="44" height="19" fill="white" transform="translate(133 17)"/>
</clipPath>
<clipPath id="clip2_1_7">
<rect width="32" height="19" fill="white" transform="translate(227 17)"/>
</clipPath>
<clipPath id="clip3_1_7">
<rect width="32" height="19" fill="white" transform="translate(309 17)"/>
</clipPath>
<clipPath id="clip4_1_7">
<rect width="45" height="19" fill="white" transform="translate(391 17)"/>
</clipPath>
</defs>
</svg>
